<svg height="320" viewBox="0 0 660 320" width="660" xmlns="http://www.w3.org/2000/svg" xmlns:xlink="http://www.w3.org/1999/xlink"><clipPath id="a"><path d="m0 0h660v320h-660z"/></clipPath><g clip-path="url(#a)"><path d="m0 0h660v320h-660z" fill="#fff"/><g stroke-miterlimit="10"><path d="m293.1 75.95-65.268 6.244-59.348-82.194-116.145 48.693-52.339 109.025 129.075 26.571 88.056 53.927" fill="none" stroke="#c62222" stroke-width="6" transform="translate(244.649 61.658)"/><path d="m451.692 74.414-68.657 6.23-58.33-80.644-115.717 48.225-76.265-19.768-132.723-8.816 79.821 103.2 2.5 112.589 77.279-78.891 125.14 25.924 87.649 53.651" fill="none" stroke="#16c421" stroke-linejoin="round" stroke-width="6" transform="translate(86.662 68.165)"/><path d="m449.267 110.324-62.567 6.076-60.013-82.9-120.387 49.954-71.691-18.554-1.309-64.9-85.4 7.742-47.9 51.858 83.074 107.417 2.255 102.425 67.834-69.18 49.172 40.838" fill="none" stroke="#e6d314" stroke-width="6" transform="translate(88.486 22.017)"/><path d="m262.076 0-14.467 30.082-71.934-18.646-133.013-8.53-42.662 80.079 132.672 34.356 1.182 82.748 63.226-64.119 47.063-97.232 105.589 24.78 75.663-4.244 41.105 65.178" fill="none" stroke="#2f39d3" stroke-width="6" transform="translate(44 79.748)"/><path d="m350.006 125.262-33.106-21.985-155.5 22.833-83.561-25.418-77.839-100.692 150.143 62.927 47.449-33.963 111.154 26.136 73.427-4.271 39.5 62.915" fill="none" stroke="#14e6d6" stroke-width="6" transform="translate(84.431 93.266)"/><g fill="#fff" stroke="#979797" stroke-width="4" transform="translate(379.301 132.052)"><ellipse cx="13.075" cy="13.13" rx="13.075" ry="13.13" stroke="none"/><ellipse cx="13.075" cy="13.13" fill="none" rx="11.075" ry="11.13"/></g><g fill="#fff" stroke="#979797" stroke-width="4" transform="translate(218.918 141.681)"><ellipse cx="13.075" cy="13.13" rx="13.075" ry="13.13" stroke="none"/><ellipse cx="13.075" cy="13.13" fill="none" rx="11.075" ry="11.13"/></g><g fill="#fff" stroke="#979797" stroke-width="4" transform="translate(35 146.933)"><ellipse cx="13.075" cy="13.13" rx="13.075" ry="13.13" stroke="none"/><ellipse cx="13.075" cy="13.13" fill="none" rx="11.075" ry="11.13"/></g><g fill="#fff" stroke="#979797" stroke-width="4" transform="translate(153.544 180.197)"><ellipse cx="13.075" cy="13.13" rx="13.075" ry="13.13" stroke="none"/><ellipse cx="13.075" cy="13.13" fill="none" rx="11.075" ry="11.13"/></g><g fill="#fff" stroke="#979797" stroke-width="4" transform="translate(74.224 75.154)"><ellipse cx="13.075" cy="13.13" rx="13.075" ry="13.13" stroke="none"/><ellipse cx="13.075" cy="13.13" fill="none" rx="11.075" ry="11.13"/></g><g fill="#fff" stroke="#979797" stroke-width="4" transform="translate(127.303 17.783)"><ellipse cx="13.075" cy="13.13" rx="13.075" ry="13.13" stroke="none"/><ellipse cx="13.075" cy="13.13" fill="none" rx="11.075" ry="11.13"/></g><g fill="#fff" stroke="#979797" stroke-width="4" transform="translate(208.747 8)"><ellipse cx="13.075" cy="13.13" rx="13.075" ry="13.13" stroke="none"/><ellipse cx="13.075" cy="13.13" fill="none" rx="11.075" ry="11.13"/></g><g fill="#fff" stroke="#979797" stroke-width="4" transform="translate(157.031 281.739)"><ellipse cx="13.075" cy="13.13" rx="13.075" ry="13.13" stroke="none"/><ellipse cx="13.075" cy="13.13" fill="none" rx="11.075" ry="11.13"/></g><g fill="#fff" stroke="#979797" stroke-width="4" transform="translate(208.458 78.655)"><ellipse cx="13.075" cy="13.13" rx="13.075" ry="13.13" stroke="none"/><ellipse cx="13.075" cy="13.13" fill="none" rx="11.075" ry="11.13"/></g><g fill="#fff" stroke="#979797" stroke-width="4" transform="translate(397.605 49.768)"><ellipse cx="13.075" cy="13.13" rx="13.075" ry="13.13" stroke="none"/><ellipse cx="13.075" cy="13.13" fill="none" rx="11.075" ry="11.13"/></g><g fill="#5e5656" stroke="#979797" stroke-width="4" transform="translate(269.473 94.412)"><ellipse cx="19.612" cy="19.696" rx="19.612" ry="19.696" stroke="none"/><ellipse cx="19.612" cy="19.696" fill="none" rx="17.612" ry="17.696"/></g><g fill="#5e5656" stroke="#979797" stroke-width="4" transform="translate(450.776 121.548)"><ellipse cx="19.612" cy="19.696" rx="19.612" ry="19.696" stroke="none"/><ellipse cx="19.612" cy="19.696" fill="none" rx="17.612" ry="17.696"/></g><g fill="#5e5656" stroke="#979797" stroke-width="4" transform="translate(227.634 202.081)"><ellipse cx="19.612" cy="19.696" rx="19.612" ry="19.696" stroke="none"/><ellipse cx="19.612" cy="19.696" fill="none" rx="17.612" ry="17.696"/></g><g fill="#fff" stroke="#979797" stroke-width="4" transform="translate(387.146 184.574)"><ellipse cx="13.075" cy="13.13" rx="13.075" ry="13.13" stroke="none"/><ellipse cx="13.075" cy="13.13" fill="none" rx="11.075" ry="11.13"/></g><g fill="#fff" stroke="#979797" stroke-width="4" transform="translate(360.996 234.47)"><ellipse cx="13.075" cy="13.13" rx="13.075" ry="13.13" stroke="none"/><ellipse cx="13.075" cy="13.13" fill="none" rx="11.075" ry="11.13"/></g><g fill="#fff" stroke="#242424" transform="translate(87.383 35.189)"><ellipse cx="10.481" cy="10.476" rx="10.481" ry="10.476" stroke="none"/><ellipse cx="10.481" cy="10.476" fill="none" rx="9.981" ry="9.976"/></g></g><text font-family="Helvetica-Bold, Helvetica" font-size="14" font-weight="700" transform="translate(86.51 35.636)"><tspan x="7.462" y="11">1</tspan></text><g fill="#fff" stroke="#242424" stroke-miterlimit="10" transform="translate(172.508 33)"><ellipse cx="10.481" cy="10.476" rx="10.481" ry="10.476" stroke="none"/><ellipse cx="10.481" cy="10.476" fill="none" rx="9.981" ry="9.976"/></g><text font-family="Helvetica-Bold, Helvetica" font-size="14" font-weight="700" transform="translate(171.635 33.447)"><tspan x="7.462" y="11">2</tspan></text><g fill="#fff" stroke="#242424" stroke-miterlimit="10" transform="translate(227.534 35.252)"><ellipse cx="10.481" cy="10.476" rx="10.481" ry="10.476" stroke="none"/><ellipse cx="10.481" cy="10.476" fill="none" rx="9.981" ry="9.976"/></g><text font-family="Helvetica-Bold, Helvetica" font-size="14" font-weight="700" transform="translate(226.661 35.699)"><tspan x="7.462" y="11">3</tspan></text><g fill="#fff" stroke="#242424" stroke-miterlimit="10" transform="translate(146.093 59.269)"><ellipse cx="10.481" cy="10.476" rx="10.481" ry="10.476" stroke="none"/><ellipse cx="10.481" cy="10.476" fill="none" rx="9.981" ry="9.976"/></g><text font-family="Helvetica-Bold, Helvetica" font-size="14" font-weight="700" transform="translate(145.22 59.716)"><tspan x="7.462" y="11">4</tspan></text><g fill="#fff" stroke="#242424" stroke-miterlimit="10" transform="translate(250.244 69.297)"><ellipse cx="10.481" cy="10.476" rx="10.481" ry="10.476" stroke="none"/><ellipse cx="10.481" cy="10.476" fill="none" rx="9.981" ry="9.976"/></g><text font-family="Helvetica-Bold, Helvetica" font-size="14" font-weight="700" transform="translate(249.371 69.744)"><tspan x="7.462" y="11">5</tspan></text><g fill="#fff" stroke="#242424" stroke-miterlimit="10" transform="translate(294.789 54.457)"><ellipse cx="10.481" cy="10.476" rx="10.481" ry="10.476" stroke="none"/><ellipse cx="10.481" cy="10.476" fill="none" rx="9.981" ry="9.976"/></g><text font-family="Helvetica-Bold, Helvetica" font-size="14" font-weight="700" transform="translate(293.916 54.904)"><tspan x="7.462" y="11">6</tspan></text><g fill="#fff" stroke="#242424" stroke-miterlimit="10" transform="translate(338.46 54.457)"><ellipse cx="10.481" cy="10.476" rx="10.481" ry="10.476" stroke="none"/><ellipse cx="10.481" cy="10.476" fill="none" rx="9.981" ry="9.976"/></g><text font-family="Helvetica-Bold, Helvetica" font-size="14" font-weight="700" transform="translate(337.587 54.904)"><tspan x="7.462" y="11">7</tspan></text><g fill="#fff" stroke="#242424" stroke-miterlimit="10" transform="translate(452.006 79.773)"><ellipse cx="10.481" cy="10.476" rx="10.481" ry="10.476" stroke="none"/><ellipse cx="10.481" cy="10.476" fill="none" rx="9.981" ry="9.976"/></g><text font-family="Helvetica-Bold, Helvetica" font-size="14" font-weight="700" transform="translate(451.133 80.22)"><tspan x="7.462" y="11">8</tspan></text><g fill="#fff" stroke="#242424" stroke-miterlimit="10" transform="translate(495.678 106.835)"><ellipse cx="10.481" cy="10.476" rx="10.481" ry="10.476" stroke="none"/><ellipse cx="10.481" cy="10.476" fill="none" rx="9.981" ry="9.976"/></g><text font-family="Helvetica-Bold, Helvetica" font-size="14" font-weight="700" transform="translate(494.805 107.282)"><tspan x="7.462" y="11">9</tspan></text><g fill="#fff" stroke="#242424" stroke-miterlimit="10" transform="translate(38.873 102.47)"><ellipse cx="10.481" cy="10.476" rx="10.481" ry="10.476" stroke="none"/><ellipse cx="10.481" cy="10.476" fill="none" rx="9.981" ry="9.976"/></g><text font-family="Helvetica-Bold, Helvetica" font-size="14" font-weight="700" transform="translate(38 102.917)"><tspan x="3.568" y="11">10</tspan></text><g fill="#fff" stroke="#242424" stroke-miterlimit="10" transform="translate(90.406 132.15)"><ellipse cx="10.481" cy="10.476" rx="10.481" ry="10.476" stroke="none"/><ellipse cx="10.481" cy="10.476" fill="none" rx="9.981" ry="9.976"/></g><text font-family="Helvetica-Bold, Helvetica" font-size="14" font-weight="700" transform="translate(89.533 132.597)"><tspan x="3.951" y="11">11</tspan></text><g fill="#fff" stroke="#242424" stroke-miterlimit="10" transform="translate(174.255 106.835)"><ellipse cx="10.481" cy="10.476" rx="10.481" ry="10.476" stroke="none"/><ellipse cx="10.481" cy="10.476" fill="none" rx="9.981" ry="9.976"/></g><text font-family="Helvetica-Bold, Helvetica" font-size="14" font-weight="700" transform="translate(173.382 107.282)"><tspan x="3.568" y="11">12</tspan></text><g fill="#fff" stroke="#242424" stroke-miterlimit="10" transform="translate(236.269 112.945)"><ellipse cx="10.481" cy="10.476" rx="10.481" ry="10.476" stroke="none"/><ellipse cx="10.481" cy="10.476" fill="none" rx="9.981" ry="9.976"/></g><text font-family="Helvetica-Bold, Helvetica" font-size="14" font-weight="700" transform="translate(235.396 113.392)"><tspan x="3.568" y="11">13</tspan></text><g fill="#fff" stroke="#242424" stroke-miterlimit="10" transform="translate(279.067 152.229)"><ellipse cx="10.481" cy="10.476" rx="10.481" ry="10.476" stroke="none"/><ellipse cx="10.481" cy="10.476" fill="none" rx="9.981" ry="9.976"/></g><text font-family="Helvetica-Bold, Helvetica" font-size="14" font-weight="700" transform="translate(278.194 152.676)"><tspan x="3.568" y="11">14</tspan></text><g fill="#fff" stroke="#242424" stroke-miterlimit="10" transform="translate(339.334 103.343)"><ellipse cx="10.481" cy="10.476" rx="10.481" ry="10.476" stroke="none"/><ellipse cx="10.481" cy="10.476" fill="none" rx="9.981" ry="9.976"/></g><text font-family="Helvetica-Bold, Helvetica" font-size="14" font-weight="700" transform="translate(338.461 103.79)"><tspan x="3.568" y="11">15</tspan></text><g fill="#fff" stroke="#242424" stroke-miterlimit="10" transform="translate(413.575 115.564)"><ellipse cx="10.481" cy="10.476" rx="10.481" ry="10.476" stroke="none"/><ellipse cx="10.481" cy="10.476" fill="none" rx="9.981" ry="9.976"/></g><text font-family="Helvetica-Bold, Helvetica" font-size="14" font-weight="700" transform="translate(412.702 116.011)"><tspan x="3.568" y="11">16</tspan></text><g transform="translate(506.16 159.212)"><g fill="#fff" stroke="#242424" stroke-miterlimit="10"><ellipse cx="10.481" cy="10.476" rx="10.481" ry="10.476" stroke="none"/><ellipse cx="10.481" cy="10.476" fill="none" rx="9.981" ry="9.976"/></g><text font-family="Helvetica-Bold, Helvetica" font-size="14" font-weight="700" transform="translate(0 .447)"><tspan x="3.568" y="11">17</tspan></text></g><g fill="#fff" stroke="#242424" stroke-miterlimit="10" transform="translate(81.671 181.036)"><ellipse cx="10.481" cy="10.476" rx="10.481" ry="10.476" stroke="none"/><ellipse cx="10.481" cy="10.476" fill="none" rx="9.981" ry="9.976"/></g><text font-family="Helvetica-Bold, Helvetica" font-size="14" font-weight="700" transform="translate(80.798 181.483)"><tspan x="3.568" y="11">18</tspan></text><g fill="#fff" stroke="#242424" stroke-miterlimit="10" transform="translate(202.205 180.163)"><ellipse cx="10.481" cy="10.476" rx="10.481" ry="10.476" stroke="none"/><ellipse cx="10.481" cy="10.476" fill="none" rx="9.981" ry="9.976"/></g><text font-family="Helvetica-Bold, Helvetica" font-size="14" font-weight="700" transform="translate(201.332 180.61)"><tspan x="3.568" y="11">19</tspan></text><g fill="#fff" stroke="#242424" stroke-miterlimit="10" transform="translate(315.751 181.036)"><ellipse cx="10.481" cy="10.476" rx="10.481" ry="10.476" stroke="none"/><ellipse cx="10.481" cy="10.476" fill="none" rx="9.981" ry="9.976"/></g><text font-family="Helvetica-Bold, Helvetica" font-size="14" font-weight="700" transform="translate(314.878 181.483)"><tspan x="3.568" y="11">20</tspan></text><g transform="translate(418.816 187.147)"><g fill="#fff" stroke="#242424" stroke-miterlimit="10"><ellipse cx="10.481" cy="10.476" rx="10.481" ry="10.476" stroke="none"/><ellipse cx="10.481" cy="10.476" fill="none" rx="9.981" ry="9.976"/></g><text font-family="Helvetica-Bold, Helvetica" font-size="14" font-weight="700" transform="translate(0 .447)"><tspan x="3.568" y="11">21</tspan></text></g><g fill="#fff" stroke="#242424" stroke-miterlimit="10" transform="translate(140.191 233.414)"><ellipse cx="10.481" cy="10.476" rx="10.481" ry="10.476" stroke="none"/><ellipse cx="10.481" cy="10.476" fill="none" rx="9.981" ry="9.976"/></g><text font-family="Helvetica-Bold, Helvetica" font-size="14" font-weight="700" transform="translate(139.318 233.861)"><tspan x="3.568" y="11">22</tspan></text><g fill="#fff" stroke="#242424" stroke-miterlimit="10" transform="translate(188.23 224.684)"><ellipse cx="10.481" cy="10.476" rx="10.481" ry="10.476" stroke="none"/><ellipse cx="10.481" cy="10.476" fill="none" rx="9.981" ry="9.976"/></g><text font-family="Helvetica-Bold, Helvetica" font-size="14" font-weight="700" transform="translate(187.357 225.131)"><tspan x="3.568" y="11">23</tspan></text><g fill="#fff" stroke="#242424" stroke-miterlimit="10" transform="translate(251.99 250.873)"><ellipse cx="10.481" cy="10.476" rx="10.481" ry="10.476" stroke="none"/><ellipse cx="10.481" cy="10.476" fill="none" rx="9.981" ry="9.976"/></g><text font-family="Helvetica-Bold, Helvetica" font-size="14" font-weight="700" transform="translate(251.117 251.32)"><tspan x="3.568" y="11">24</tspan></text><g fill="#fff" stroke="#242424" stroke-miterlimit="10" transform="translate(319.245 246.508)"><ellipse cx="10.481" cy="10.476" rx="10.481" ry="10.476" stroke="none"/><ellipse cx="10.481" cy="10.476" fill="none" rx="9.981" ry="9.976"/></g><text font-family="Helvetica-Bold, Helvetica" font-size="14" font-weight="700" transform="translate(318.372 246.955)"><tspan x="3.568" y="11">25</tspan></text><g transform="translate(416.196 246.508)"><g fill="#fff" stroke="#242424" stroke-miterlimit="10"><ellipse cx="10.481" cy="10.476" rx="10.481" ry="10.476" stroke="none"/><ellipse cx="10.481" cy="10.476" fill="none" rx="9.981" ry="9.976"/></g><text font-family="Helvetica-Bold, Helvetica" font-size="14" font-weight="700" transform="translate(0 .447)"><tspan x="3.568" y="11">26</tspan></text></g></g></svg>