<svg xmlns="http://www.w3.org/2000/svg" xmlns:xlink="http://www.w3.org/1999/xlink" width="660" height="320" viewBox="0 0 660 320">
  <defs>
    <clipPath id="clip-Mobile">
      <rect width="660" height="320"/>
    </clipPath>
  </defs>
  <g id="Mobile" clip-path="url(#clip-Mobile)">
    <rect width="660" height="320" fill="#fff"/>
    <g id="Karte" transform="translate(35 8)">
      <g id="Pfade" transform="translate(9 14)">
        <path id="Magischer_Zirkel_Rot" d="M293.1,75.95l-65.268,6.244L168.484,0,52.339,48.693,0,157.718l129.075,26.571,88.056,53.927" transform="translate(200.649 39.658)" fill="none" stroke="#c62222" stroke-miterlimit="10" stroke-width="6"/>
        <path id="Silberner_Pfad_Green" d="M451.692,74.414l-68.657,6.23L324.705,0,208.988,48.225,132.723,28.457,0,19.641l79.821,103.2,2.5,112.589L159.6,156.539,284.74,182.463l87.649,53.651" transform="translate(42.662 46.165)" fill="none" stroke="#16c421" stroke-linejoin="round" stroke-miterlimit="10" stroke-width="6"/>
        <path id="Adlerhorst_Gelb" d="M449.267,110.324,386.7,116.4,326.687,33.5,206.3,83.454,134.609,64.9,133.3,0,47.9,7.742,0,59.6,83.074,167.017l2.255,102.425,67.834-69.18L202.335,241.1" transform="translate(44.486 0.017)" fill="none" stroke="#e6d314" stroke-miterlimit="10" stroke-width="6"/>
        <path id="Mammut_Tour_Blau" d="M262.076,0,247.609,30.082,175.675,11.436,42.662,2.906,0,82.985l132.672,34.356,1.182,82.748,63.226-64.119,47.063-97.232L349.732,63.518l75.663-4.244L466.5,124.452" transform="translate(0 57.748)" fill="none" stroke="#2f39d3" stroke-miterlimit="10" stroke-width="6"/>
        <path id="Flying_Circus_Turkis" d="M350.006,125.262,316.9,103.277,161.4,126.11,77.839,100.692,0,0,150.143,62.927l47.449-33.963L308.746,55.1l73.427-4.271,39.5,62.915" transform="translate(40.431 71.266)" fill="none" stroke="#14e6d6" stroke-miterlimit="10" stroke-width="6"/>
      </g>
      <g id="Plattformen">
        <g id="Oval_Copy" data-name="Oval Copy" transform="translate(344.301 124.052)" fill="#fff" stroke="#979797" stroke-miterlimit="10" stroke-width="4">
          <ellipse cx="13.075" cy="13.13" rx="13.075" ry="13.13" stroke="none"/>
          <ellipse cx="13.075" cy="13.13" rx="11.075" ry="11.13" fill="none"/>
        </g>
        <g id="Oval_Copy_6" data-name="Oval Copy 6" transform="translate(183.918 133.681)" fill="#fff" stroke="#979797" stroke-miterlimit="10" stroke-width="4">
          <ellipse cx="13.075" cy="13.13" rx="13.075" ry="13.13" stroke="none"/>
          <ellipse cx="13.075" cy="13.13" rx="11.075" ry="11.13" fill="none"/>
        </g>
        <g id="Oval_Copy_9" data-name="Oval Copy 9" transform="translate(0 138.933)" fill="#fff" stroke="#979797" stroke-miterlimit="10" stroke-width="4">
          <ellipse cx="13.075" cy="13.13" rx="13.075" ry="13.13" stroke="none"/>
          <ellipse cx="13.075" cy="13.13" rx="11.075" ry="11.13" fill="none"/>
        </g>
        <g id="Oval_Copy_14" data-name="Oval Copy 14" transform="translate(118.544 172.197)" fill="#fff" stroke="#979797" stroke-miterlimit="10" stroke-width="4">
          <ellipse cx="13.075" cy="13.13" rx="13.075" ry="13.13" stroke="none"/>
          <ellipse cx="13.075" cy="13.13" rx="11.075" ry="11.13" fill="none"/>
        </g>
        <g id="Oval_Copy_11" data-name="Oval Copy 11" transform="translate(39.224 67.154)" fill="#fff" stroke="#979797" stroke-miterlimit="10" stroke-width="4">
          <ellipse cx="13.075" cy="13.13" rx="13.075" ry="13.13" stroke="none"/>
          <ellipse cx="13.075" cy="13.13" rx="11.075" ry="11.13" fill="none"/>
        </g>
        <g id="Oval_Copy_12" data-name="Oval Copy 12" transform="translate(92.303 9.783)" fill="#fff" stroke="#979797" stroke-miterlimit="10" stroke-width="4">
          <ellipse cx="13.075" cy="13.13" rx="13.075" ry="13.13" stroke="none"/>
          <ellipse cx="13.075" cy="13.13" rx="11.075" ry="11.13" fill="none"/>
        </g>
        <g id="Oval_Copy_13" data-name="Oval Copy 13" transform="translate(173.747 0)" fill="#fff" stroke="#979797" stroke-miterlimit="10" stroke-width="4">
          <ellipse cx="13.075" cy="13.13" rx="13.075" ry="13.13" stroke="none"/>
          <ellipse cx="13.075" cy="13.13" rx="11.075" ry="11.13" fill="none"/>
        </g>
        <g id="Oval_Copy_10" data-name="Oval Copy 10" transform="translate(122.031 273.739)" fill="#fff" stroke="#979797" stroke-miterlimit="10" stroke-width="4">
          <ellipse cx="13.075" cy="13.13" rx="13.075" ry="13.13" stroke="none"/>
          <ellipse cx="13.075" cy="13.13" rx="11.075" ry="11.13" fill="none"/>
        </g>
        <g id="Oval_Copy_7" data-name="Oval Copy 7" transform="translate(173.458 70.655)" fill="#fff" stroke="#979797" stroke-miterlimit="10" stroke-width="4">
          <ellipse cx="13.075" cy="13.13" rx="13.075" ry="13.13" stroke="none"/>
          <ellipse cx="13.075" cy="13.13" rx="11.075" ry="11.13" fill="none"/>
        </g>
        <g id="Oval_Copy_4" data-name="Oval Copy 4" transform="translate(362.605 41.768)" fill="#fff" stroke="#979797" stroke-miterlimit="10" stroke-width="4">
          <ellipse cx="13.075" cy="13.13" rx="13.075" ry="13.13" stroke="none"/>
          <ellipse cx="13.075" cy="13.13" rx="11.075" ry="11.13" fill="none"/>
        </g>
        <g id="Oval_Copy_5" data-name="Oval Copy 5" transform="translate(234.473 86.412)" fill="#5e5656" stroke="#979797" stroke-miterlimit="10" stroke-width="4">
          <ellipse cx="19.612" cy="19.696" rx="19.612" ry="19.696" stroke="none"/>
          <ellipse cx="19.612" cy="19.696" rx="17.612" ry="17.696" fill="none"/>
        </g>
        <g id="Oval_Copy_15" data-name="Oval Copy 15" transform="translate(415.776 113.548)" fill="#5e5656" stroke="#979797" stroke-miterlimit="10" stroke-width="4">
          <ellipse cx="19.612" cy="19.696" rx="19.612" ry="19.696" stroke="none"/>
          <ellipse cx="19.612" cy="19.696" rx="17.612" ry="17.696" fill="none"/>
        </g>
        <g id="Oval_Copy_8" data-name="Oval Copy 8" transform="translate(192.634 194.081)" fill="#5e5656" stroke="#979797" stroke-miterlimit="10" stroke-width="4">
          <ellipse cx="19.612" cy="19.696" rx="19.612" ry="19.696" stroke="none"/>
          <ellipse cx="19.612" cy="19.696" rx="17.612" ry="17.696" fill="none"/>
        </g>
        <g id="Oval_Copy_2" data-name="Oval Copy 2" transform="translate(352.146 176.574)" fill="#fff" stroke="#979797" stroke-miterlimit="10" stroke-width="4">
          <ellipse cx="13.075" cy="13.13" rx="13.075" ry="13.13" stroke="none"/>
          <ellipse cx="13.075" cy="13.13" rx="11.075" ry="11.13" fill="none"/>
        </g>
        <g id="Oval_Copy_3" data-name="Oval Copy 3" transform="translate(325.996 226.47)" fill="#fff" stroke="#979797" stroke-miterlimit="10" stroke-width="4">
          <ellipse cx="13.075" cy="13.13" rx="13.075" ry="13.13" stroke="none"/>
          <ellipse cx="13.075" cy="13.13" rx="11.075" ry="11.13" fill="none"/>
        </g>
      </g>
      <g id="Legendenmarker" transform="translate(3 25)">
        <g id="Group_Copy_1" data-name="Group Copy 1" transform="translate(48.51 2.189)">
          <g id="Oval_Copy-2" data-name="Oval Copy" transform="translate(0.873 0)" fill="#fff" stroke="#242424" stroke-miterlimit="10" stroke-width="1">
            <ellipse cx="10.481" cy="10.476" rx="10.481" ry="10.476" stroke="none"/>
            <ellipse cx="10.481" cy="10.476" rx="9.981" ry="9.976" fill="none"/>
          </g>
          <text id="_1" data-name="1" transform="translate(0 0.447)" font-size="14" font-family="Helvetica-Bold, Helvetica" font-weight="700"><tspan x="7.462" y="11">1</tspan></text>
        </g>
        <g id="Group_Copy_2" data-name="Group Copy 2" transform="translate(133.635)">
          <g id="Oval_Copy-3" data-name="Oval Copy" transform="translate(0.873 0)" fill="#fff" stroke="#242424" stroke-miterlimit="10" stroke-width="1">
            <ellipse cx="10.481" cy="10.476" rx="10.481" ry="10.476" stroke="none"/>
            <ellipse cx="10.481" cy="10.476" rx="9.981" ry="9.976" fill="none"/>
          </g>
          <text id="_2" data-name="2" transform="translate(0 0.447)" font-size="14" font-family="Helvetica-Bold, Helvetica" font-weight="700"><tspan x="7.462" y="11">2</tspan></text>
        </g>
        <g id="Group_Copy_3" data-name="Group Copy 3" transform="translate(188.661 2.252)">
          <g id="Oval_Copy-4" data-name="Oval Copy" transform="translate(0.873 0)" fill="#fff" stroke="#242424" stroke-miterlimit="10" stroke-width="1">
            <ellipse cx="10.481" cy="10.476" rx="10.481" ry="10.476" stroke="none"/>
            <ellipse cx="10.481" cy="10.476" rx="9.981" ry="9.976" fill="none"/>
          </g>
          <text id="_3" data-name="3" transform="translate(0 0.447)" font-size="14" font-family="Helvetica-Bold, Helvetica" font-weight="700"><tspan x="7.462" y="11">3</tspan></text>
        </g>
        <g id="Group_Copy_4" data-name="Group Copy 4" transform="translate(107.22 26.269)">
          <g id="Oval_Copy-5" data-name="Oval Copy" transform="translate(0.873 0)" fill="#fff" stroke="#242424" stroke-miterlimit="10" stroke-width="1">
            <ellipse cx="10.481" cy="10.476" rx="10.481" ry="10.476" stroke="none"/>
            <ellipse cx="10.481" cy="10.476" rx="9.981" ry="9.976" fill="none"/>
          </g>
          <text id="_4" data-name="4" transform="translate(0 0.447)" font-size="14" font-family="Helvetica-Bold, Helvetica" font-weight="700"><tspan x="7.462" y="11">4</tspan></text>
        </g>
        <g id="Group_Copy_5" data-name="Group Copy 5" transform="translate(211.371 36.297)">
          <g id="Oval_Copy-6" data-name="Oval Copy" transform="translate(0.873 0)" fill="#fff" stroke="#242424" stroke-miterlimit="10" stroke-width="1">
            <ellipse cx="10.481" cy="10.476" rx="10.481" ry="10.476" stroke="none"/>
            <ellipse cx="10.481" cy="10.476" rx="9.981" ry="9.976" fill="none"/>
          </g>
          <text id="_5" data-name="5" transform="translate(0 0.447)" font-size="14" font-family="Helvetica-Bold, Helvetica" font-weight="700"><tspan x="7.462" y="11">5</tspan></text>
        </g>
        <g id="Group_Copy_6" data-name="Group Copy 6" transform="translate(255.916 21.457)">
          <g id="Oval_Copy-7" data-name="Oval Copy" transform="translate(0.873 0)" fill="#fff" stroke="#242424" stroke-miterlimit="10" stroke-width="1">
            <ellipse cx="10.481" cy="10.476" rx="10.481" ry="10.476" stroke="none"/>
            <ellipse cx="10.481" cy="10.476" rx="9.981" ry="9.976" fill="none"/>
          </g>
          <text id="_6" data-name="6" transform="translate(0 0.447)" font-size="14" font-family="Helvetica-Bold, Helvetica" font-weight="700"><tspan x="7.462" y="11">6</tspan></text>
        </g>
        <g id="Group_Copy_7" data-name="Group Copy 7" transform="translate(299.587 21.457)">
          <g id="Oval_Copy-8" data-name="Oval Copy" transform="translate(0.873 0)" fill="#fff" stroke="#242424" stroke-miterlimit="10" stroke-width="1">
            <ellipse cx="10.481" cy="10.476" rx="10.481" ry="10.476" stroke="none"/>
            <ellipse cx="10.481" cy="10.476" rx="9.981" ry="9.976" fill="none"/>
          </g>
          <text id="_7" data-name="7" transform="translate(0 0.447)" font-size="14" font-family="Helvetica-Bold, Helvetica" font-weight="700"><tspan x="7.462" y="11">7</tspan></text>
        </g>
        <g id="Group_Copy_8" data-name="Group Copy 8" transform="translate(413.133 46.773)">
          <g id="Oval_Copy-9" data-name="Oval Copy" transform="translate(0.873 0)" fill="#fff" stroke="#242424" stroke-miterlimit="10" stroke-width="1">
            <ellipse cx="10.481" cy="10.476" rx="10.481" ry="10.476" stroke="none"/>
            <ellipse cx="10.481" cy="10.476" rx="9.981" ry="9.976" fill="none"/>
          </g>
          <text id="_8" data-name="8" transform="translate(0 0.447)" font-size="14" font-family="Helvetica-Bold, Helvetica" font-weight="700"><tspan x="7.462" y="11">8</tspan></text>
        </g>
        <g id="Group_Copy_9" data-name="Group Copy 9" transform="translate(456.805 73.835)">
          <g id="Oval_Copy-10" data-name="Oval Copy" transform="translate(0.873 0)" fill="#fff" stroke="#242424" stroke-miterlimit="10" stroke-width="1">
            <ellipse cx="10.481" cy="10.476" rx="10.481" ry="10.476" stroke="none"/>
            <ellipse cx="10.481" cy="10.476" rx="9.981" ry="9.976" fill="none"/>
          </g>
          <text id="_9" data-name="9" transform="translate(0 0.447)" font-size="14" font-family="Helvetica-Bold, Helvetica" font-weight="700"><tspan x="7.462" y="11">9</tspan></text>
        </g>
        <g id="Group_Copy_10" data-name="Group Copy 10" transform="translate(0 69.47)">
          <g id="Oval_Copy-11" data-name="Oval Copy" transform="translate(0.873 0)" fill="#fff" stroke="#242424" stroke-miterlimit="10" stroke-width="1">
            <ellipse cx="10.481" cy="10.476" rx="10.481" ry="10.476" stroke="none"/>
            <ellipse cx="10.481" cy="10.476" rx="9.981" ry="9.976" fill="none"/>
          </g>
          <text id="_10" data-name="10" transform="translate(0 0.447)" font-size="14" font-family="Helvetica-Bold, Helvetica" font-weight="700"><tspan x="3.568" y="11">10</tspan></text>
        </g>
        <g id="Group_Copy_11" data-name="Group Copy 11" transform="translate(51.533 99.15)">
          <g id="Oval_Copy-12" data-name="Oval Copy" transform="translate(0.873 0)" fill="#fff" stroke="#242424" stroke-miterlimit="10" stroke-width="1">
            <ellipse cx="10.481" cy="10.476" rx="10.481" ry="10.476" stroke="none"/>
            <ellipse cx="10.481" cy="10.476" rx="9.981" ry="9.976" fill="none"/>
          </g>
          <text id="_11" data-name="11" transform="translate(0 0.447)" font-size="14" font-family="Helvetica-Bold, Helvetica" font-weight="700"><tspan x="3.951" y="11">11</tspan></text>
        </g>
        <g id="Group_Copy_12" data-name="Group Copy 12" transform="translate(135.382 73.835)">
          <g id="Oval_Copy-13" data-name="Oval Copy" transform="translate(0.873 0)" fill="#fff" stroke="#242424" stroke-miterlimit="10" stroke-width="1">
            <ellipse cx="10.481" cy="10.476" rx="10.481" ry="10.476" stroke="none"/>
            <ellipse cx="10.481" cy="10.476" rx="9.981" ry="9.976" fill="none"/>
          </g>
          <text id="_12" data-name="12" transform="translate(0 0.447)" font-size="14" font-family="Helvetica-Bold, Helvetica" font-weight="700"><tspan x="3.568" y="11">12</tspan></text>
        </g>
        <g id="Group_Copy_13" data-name="Group Copy 13" transform="translate(197.396 79.945)">
          <g id="Oval_Copy-14" data-name="Oval Copy" transform="translate(0.873 0)" fill="#fff" stroke="#242424" stroke-miterlimit="10" stroke-width="1">
            <ellipse cx="10.481" cy="10.476" rx="10.481" ry="10.476" stroke="none"/>
            <ellipse cx="10.481" cy="10.476" rx="9.981" ry="9.976" fill="none"/>
          </g>
          <text id="_13" data-name="13" transform="translate(0 0.447)" font-size="14" font-family="Helvetica-Bold, Helvetica" font-weight="700"><tspan x="3.568" y="11">13</tspan></text>
        </g>
        <g id="Group_Copy_14" data-name="Group Copy 14" transform="translate(240.194 119.229)">
          <g id="Oval_Copy-15" data-name="Oval Copy" transform="translate(0.873 0)" fill="#fff" stroke="#242424" stroke-miterlimit="10" stroke-width="1">
            <ellipse cx="10.481" cy="10.476" rx="10.481" ry="10.476" stroke="none"/>
            <ellipse cx="10.481" cy="10.476" rx="9.981" ry="9.976" fill="none"/>
          </g>
          <text id="_14" data-name="14" transform="translate(0 0.447)" font-size="14" font-family="Helvetica-Bold, Helvetica" font-weight="700"><tspan x="3.568" y="11">14</tspan></text>
        </g>
        <g id="Group_Copy_15" data-name="Group Copy 15" transform="translate(300.461 70.343)">
          <g id="Oval_Copy-16" data-name="Oval Copy" transform="translate(0.873 0)" fill="#fff" stroke="#242424" stroke-miterlimit="10" stroke-width="1">
            <ellipse cx="10.481" cy="10.476" rx="10.481" ry="10.476" stroke="none"/>
            <ellipse cx="10.481" cy="10.476" rx="9.981" ry="9.976" fill="none"/>
          </g>
          <text id="_15" data-name="15" transform="translate(0 0.447)" font-size="14" font-family="Helvetica-Bold, Helvetica" font-weight="700"><tspan x="3.568" y="11">15</tspan></text>
        </g>
        <g id="Group_Copy_16" data-name="Group Copy 16" transform="translate(374.702 82.564)">
          <g id="Oval_Copy-17" data-name="Oval Copy" transform="translate(0.873 0)" fill="#fff" stroke="#242424" stroke-miterlimit="10" stroke-width="1">
            <ellipse cx="10.481" cy="10.476" rx="10.481" ry="10.476" stroke="none"/>
            <ellipse cx="10.481" cy="10.476" rx="9.981" ry="9.976" fill="none"/>
          </g>
          <text id="_16" data-name="16" transform="translate(0 0.447)" font-size="14" font-family="Helvetica-Bold, Helvetica" font-weight="700"><tspan x="3.568" y="11">16</tspan></text>
        </g>
        <g id="Group_Copy_17" data-name="Group Copy 17" transform="translate(468.16 126.212)">
          <g id="Oval_Copy-18" data-name="Oval Copy" transform="translate(0 0)" fill="#fff" stroke="#242424" stroke-miterlimit="10" stroke-width="1">
            <ellipse cx="10.481" cy="10.476" rx="10.481" ry="10.476" stroke="none"/>
            <ellipse cx="10.481" cy="10.476" rx="9.981" ry="9.976" fill="none"/>
          </g>
          <text id="_17" data-name="17" transform="translate(0 0.447)" font-size="14" font-family="Helvetica-Bold, Helvetica" font-weight="700"><tspan x="3.568" y="11">17</tspan></text>
        </g>
        <g id="Group_Copy_18" data-name="Group Copy 18" transform="translate(42.798 148.036)">
          <g id="Oval_Copy-19" data-name="Oval Copy" transform="translate(0.873 0)" fill="#fff" stroke="#242424" stroke-miterlimit="10" stroke-width="1">
            <ellipse cx="10.481" cy="10.476" rx="10.481" ry="10.476" stroke="none"/>
            <ellipse cx="10.481" cy="10.476" rx="9.981" ry="9.976" fill="none"/>
          </g>
          <text id="_18" data-name="18" transform="translate(0 0.447)" font-size="14" font-family="Helvetica-Bold, Helvetica" font-weight="700"><tspan x="3.568" y="11">18</tspan></text>
        </g>
        <g id="Group_Copy_19" data-name="Group Copy 19" transform="translate(163.332 147.163)">
          <g id="Oval_Copy-20" data-name="Oval Copy" transform="translate(0.873 0)" fill="#fff" stroke="#242424" stroke-miterlimit="10" stroke-width="1">
            <ellipse cx="10.481" cy="10.476" rx="10.481" ry="10.476" stroke="none"/>
            <ellipse cx="10.481" cy="10.476" rx="9.981" ry="9.976" fill="none"/>
          </g>
          <text id="_19" data-name="19" transform="translate(0 0.447)" font-size="14" font-family="Helvetica-Bold, Helvetica" font-weight="700"><tspan x="3.568" y="11">19</tspan></text>
        </g>
        <g id="Group_Copy_20" data-name="Group Copy 20" transform="translate(276.878 148.036)">
          <g id="Oval_Copy-21" data-name="Oval Copy" transform="translate(0.873 0)" fill="#fff" stroke="#242424" stroke-miterlimit="10" stroke-width="1">
            <ellipse cx="10.481" cy="10.476" rx="10.481" ry="10.476" stroke="none"/>
            <ellipse cx="10.481" cy="10.476" rx="9.981" ry="9.976" fill="none"/>
          </g>
          <text id="_20" data-name="20" transform="translate(0 0.447)" font-size="14" font-family="Helvetica-Bold, Helvetica" font-weight="700"><tspan x="3.568" y="11">20</tspan></text>
        </g>
        <g id="Group_21" data-name="Group 21" transform="translate(380.816 154.147)">
          <g id="Oval_Copy-22" data-name="Oval Copy" transform="translate(0 0)" fill="#fff" stroke="#242424" stroke-miterlimit="10" stroke-width="1">
            <ellipse cx="10.481" cy="10.476" rx="10.481" ry="10.476" stroke="none"/>
            <ellipse cx="10.481" cy="10.476" rx="9.981" ry="9.976" fill="none"/>
          </g>
          <text id="_21" data-name="21" transform="translate(0 0.447)" font-size="14" font-family="Helvetica-Bold, Helvetica" font-weight="700"><tspan x="3.568" y="11">21</tspan></text>
        </g>
        <g id="Group_Copy_22" data-name="Group Copy 22" transform="translate(101.318 200.414)">
          <g id="Oval_Copy-23" data-name="Oval Copy" transform="translate(0.873 0)" fill="#fff" stroke="#242424" stroke-miterlimit="10" stroke-width="1">
            <ellipse cx="10.481" cy="10.476" rx="10.481" ry="10.476" stroke="none"/>
            <ellipse cx="10.481" cy="10.476" rx="9.981" ry="9.976" fill="none"/>
          </g>
          <text id="_22" data-name="22" transform="translate(0 0.447)" font-size="14" font-family="Helvetica-Bold, Helvetica" font-weight="700"><tspan x="3.568" y="11">22</tspan></text>
        </g>
        <g id="Group_Copy_23" data-name="Group Copy 23" transform="translate(149.357 191.684)">
          <g id="Oval_Copy-24" data-name="Oval Copy" transform="translate(0.873 0)" fill="#fff" stroke="#242424" stroke-miterlimit="10" stroke-width="1">
            <ellipse cx="10.481" cy="10.476" rx="10.481" ry="10.476" stroke="none"/>
            <ellipse cx="10.481" cy="10.476" rx="9.981" ry="9.976" fill="none"/>
          </g>
          <text id="_23" data-name="23" transform="translate(0 0.447)" font-size="14" font-family="Helvetica-Bold, Helvetica" font-weight="700"><tspan x="3.568" y="11">23</tspan></text>
        </g>
        <g id="Group_Copy_24" data-name="Group Copy 24" transform="translate(213.117 217.873)">
          <g id="Oval_Copy-25" data-name="Oval Copy" transform="translate(0.873 0)" fill="#fff" stroke="#242424" stroke-miterlimit="10" stroke-width="1">
            <ellipse cx="10.481" cy="10.476" rx="10.481" ry="10.476" stroke="none"/>
            <ellipse cx="10.481" cy="10.476" rx="9.981" ry="9.976" fill="none"/>
          </g>
          <text id="_24" data-name="24" transform="translate(0 0.447)" font-size="14" font-family="Helvetica-Bold, Helvetica" font-weight="700"><tspan x="3.568" y="11">24</tspan></text>
        </g>
        <g id="Group_Copy_25" data-name="Group Copy 25" transform="translate(280.372 213.508)">
          <g id="Oval_Copy-26" data-name="Oval Copy" transform="translate(0.873 0)" fill="#fff" stroke="#242424" stroke-miterlimit="10" stroke-width="1">
            <ellipse cx="10.481" cy="10.476" rx="10.481" ry="10.476" stroke="none"/>
            <ellipse cx="10.481" cy="10.476" rx="9.981" ry="9.976" fill="none"/>
          </g>
          <text id="_25" data-name="25" transform="translate(0 0.447)" font-size="14" font-family="Helvetica-Bold, Helvetica" font-weight="700"><tspan x="3.568" y="11">25</tspan></text>
        </g>
        <g id="Group_Copy_26" data-name="Group Copy 26" transform="translate(378.196 213.508)">
          <g id="Oval_Copy-27" data-name="Oval Copy" transform="translate(0 0)" fill="#fff" stroke="#242424" stroke-miterlimit="10" stroke-width="1">
            <ellipse cx="10.481" cy="10.476" rx="10.481" ry="10.476" stroke="none"/>
            <ellipse cx="10.481" cy="10.476" rx="9.981" ry="9.976" fill="none"/>
          </g>
          <text id="_26" data-name="26" transform="translate(0 0.447)" font-size="14" font-family="Helvetica-Bold, Helvetica" font-weight="700"><tspan x="3.568" y="11">26</tspan></text>
        </g>
      </g>
    </g>
  </g>
</svg>
